PathFileType	4	(X/Y/Z)	 s04c0102.trc
DataRate	CameraRate	NumFrames	NumMarkers	Units	OrigDataRate	OrigDataStartFrame	OrigNumFrames
200	200	4	50	mm	200	751	2000
Frame#	Time	racr			lacr			c7			jug			rlel			rdr			llel			ldr			s2			lic			ric			lasi			rasi			rpsi			lpsi			rgt			lgt			rth1			rth2			rth3			rth4			rlfc			rmfc			rsh1			rsh2			rsh3			rsh4			rlmal			rmmal			rcal			rtoe			rmt5			lth1			lth2			lth4			lth3			llfc			lmfc			lsh1			lsh2			lsh3			lsh4			llmal			lmmal			lcal			ltoe			lmt5			SBIKE			LBIKE			RBIKE			
		X1	Y1	Z1	X2	Y2	Z2	X3	Y3	Z3	X4	Y4	Z4	X5	Y5	Z5	X6	Y6	Z6	X7	Y7	Z7	X8	Y8	Z8	X9	Y9	Z9	X10	Y10	Z10	X11	Y11	Z11	X12	Y12	Z12	X13	Y13	Z13	X14	Y14	Z14	X15	Y15	Z15	X16	Y16	Z16	X17	Y17	Z17	X18	Y18	Z18	X19	Y19	Z19	X20	Y20	Z20	X21	Y21	Z21	X22	Y22	Z22	X23	Y23	Z23	X24	Y24	Z24	X25	Y25	Z25	X26	Y26	Z26	X27	Y27	Z27	X28	Y28	Z28	X29	Y29	Z29	X30	Y30	Z30	X31	Y31	Z31	X32	Y32	Z32	X33	Y33	Z33	X34	Y34	Z34	X35	Y35	Z35	X36	Y36	Z36	X37	Y37	Z37	X38	Y38	Z38	X39	Y39	Z39	X40	Y40	Z40	X41	Y41	Z41	X42	Y42	Z42	X43	Y43	Z43	X44	Y44	Z44	X45	Y45	Z45	X46	Y46	Z46	X47	Y47	Z47	X48	Y48	Z48	X49	Y49	Z49	X50	Y50	Z50	
751	3.7550	500.257557	1352.206542	-131.452714	503.854663	1354.038326	-389.850623	484.474168	1414.190630	-263.990571	431.499251	1266.148934	-272.167872	466.826918	1076.816426	32.167399	687.399128	912.844152	-72.013478	463.260567	1095.040982	-528.786142	690.214402	926.640672	-455.593700	-73.526746	1182.420445	-269.418117	75.995557	1207.964759	-425.789133	77.690320	1192.742381	-104.100569	118.938664	1165.442569	-380.827437	117.598803	1160.039368	-97.115781	-48.686415	1228.564838	-223.219950	-49.476722	1234.634398	-297.405402	30.458124	1130.218063	-91.956365	55.196215	1119.729975	-453.223053	133.206095	1003.498055	-70.336205	203.150487	949.399585	-71.770395	238.949124	871.892600	-68.660278	229.538807	970.538822	-87.005048	301.499663	741.535302	-81.653284	295.690497	724.443783	-196.630014	217.831050	644.106458	-67.727764	185.153599	561.637100	-89.815065	115.527874	513.593407	-109.046139	215.169405	545.791196	-108.802958	33.782564	385.889671	-128.253509	71.876181	382.609282	-207.871891	-31.275549	391.390153	-180.351764	210.997686	211.876051	-141.287766	134.095407	227.605019	-97.992427	127.296360	1057.603871	-458.372753	211.764969	1038.023186	-457.139472	228.458947	1069.372212	-448.357380	276.503077	976.699816	-454.790508	402.428971	878.896593	-426.972705	427.776972	858.781275	-317.551221	382.691938	761.458035	-452.930234	374.414036	676.756620	-432.377297	326.673977	602.331143	-433.541726	400.033060	671.108912	-402.692726	269.387429	471.519102	-434.719790	263.621138	468.341535	-346.422244	189.229538	440.677588	-396.728370	490.135215	450.793512	-399.000669	423.792443	409.175077	-462.248964	-177.475578	937.340500	-278.808036	-3.464447	85.455457	-484.611836	-14.926966	80.073756	-84.236054	
752	3.7600	499.166581	1352.546181	-131.255901	503.551791	1353.878564	-389.761194	483.481068	1414.379847	-263.433854	431.090050	1266.135238	-271.833623	465.972749	1076.648633	30.938227	687.309814	912.875550	-72.514967	463.551828	1094.466557	-528.803877	690.538951	926.208554	-455.386752	-73.095320	1179.507070	-269.482883	76.196669	1204.562340	-426.285153	77.972042	1191.088594	-104.500474	119.688722	1162.030054	-381.213141	118.052652	1159.354812	-96.955439	-48.278060	1225.712325	-223.037205	-48.785399	1230.780490	-298.671667	31.470171	1128.588487	-91.661887	55.870849	1113.025792	-452.512737	137.319574	1004.964833	-71.321927	208.278541	952.089287	-72.334176	245.588477	875.475881	-68.092633	234.162916	973.532477	-87.982463	309.172099	745.503746	-80.340055	303.370845	728.103106	-195.150938	223.809539	650.000121	-66.357011	189.114324	568.435429	-88.581957	118.138009	522.254471	-107.807200	218.582614	551.934146	-107.804496	32.823346	396.889181	-127.539470	70.869398	393.207252	-207.028754	-31.883961	404.033384	-179.475022	206.204583	219.011942	-141.498982	129.774738	236.403948	-97.896105	128.165801	1050.749725	-458.173334	212.493455	1030.268450	-456.896237	229.482481	1061.580721	-448.488427	276.573723	968.317738	-454.185242	400.168917	868.822552	-426.800757	425.814564	849.406558	-316.346537	381.593503	751.608730	-452.562118	374.669488	666.819385	-432.118201	328.123814	591.580985	-433.163917	400.627670	661.512338	-402.731867	272.909372	459.395386	-434.453652	267.268478	456.580785	-345.701170	192.899989	427.840289	-397.114207	494.094195	442.218505	-398.830038	428.273091	399.617113	-462.055019	-177.471013	937.325689	-278.547886	-3.425747	85.485238	-484.601973	-14.909147	80.073012	-84.228354	
753	3.7650	498.246563	1353.023867	-131.071712	503.294005	1353.830413	-389.778683	482.366487	1414.714360	-263.032284	431.046592	1266.098301	-271.614955	465.524677	1076.683249	30.176670	687.390753	912.976224	-72.543021	464.215484	1094.176447	-529.323768	690.959453	925.922125	-455.381413	-72.783653	1176.444716	-269.663289	76.661790	1201.170307	-426.968242	78.219009	1189.491542	-104.892168	120.516509	1159.158147	-381.646058	118.581577	1158.726395	-96.881782	-47.209489	1221.277086	-225.132025	-49.779711	1227.985354	-298.490555	32.719139	1126.860704	-91.477223	56.627714	1106.697654	-451.763651	141.378136	1006.261842	-71.756106	213.208581	954.704270	-72.615082	252.038885	878.957579	-67.279916	238.795861	976.455079	-88.297679	316.750782	749.528561	-78.766471	310.964573	731.765759	-193.720974	229.692167	656.151649	-65.057924	193.146869	575.378228	-87.406668	121.108213	531.008359	-106.535199	223.368843	558.623767	-106.631198	32.379361	408.079423	-126.646292	70.462119	403.785359	-206.200895	-32.167901	416.756921	-178.622491	202.008387	226.610608	-141.381209	125.987027	245.454140	-97.869736	129.166816	1044.315871	-458.233225	213.114277	1022.594287	-456.618029	230.617129	1054.120108	-448.679675	276.667436	960.264515	-453.869160	397.508219	860.023717	-427.039138	423.524747	840.781944	-315.971644	380.520668	742.195014	-452.199566	374.726057	657.021264	-432.160607	329.059776	581.349364	-433.305267	400.886836	651.875325	-402.858751	275.918899	447.807818	-434.596153	270.151218	446.404392	-346.379867	196.967543	414.768809	-396.908993	497.585389	433.109127	-398.669138	432.347678	389.762201	-461.862735	-177.471526	937.336309	-278.337704	-3.405053	85.511030	-484.577752	-14.879354	80.070455	-84.208104	
754	3.7700	497.411672	1353.685516	-130.904177	502.933701	1353.907711	-389.961522	481.301513	1415.100206	-262.851834	430.979907	1266.132115	-271.375962	465.373192	1076.842079	29.830158	687.467959	913.141277	-72.445462	465.150170	1094.064380	-530.103022	691.355330	925.637105	-455.411905	-72.394755	1173.360680	-270.014516	77.288559	1197.846552	-427.673533	78.468159	1188.022009	-105.321227	121.436685	1156.356349	-381.990661	119.170125	1158.178585	-96.884043	-49.046758	1219.745576	-224.248969	-50.047031	1224.596167	-299.174022	34.018372	1125.087218	-91.106438	57.401930	1100.943766	-451.058442	145.194513	1007.570884	-71.833114	217.977846	957.358486	-72.505104	258.262233	882.450829	-66.340768	243.051465	979.071510	-88.708552	324.270652	753.791616	-77.567752	318.403425	735.659881	-192.297100	235.706766	662.408225	-63.731681	197.369983	582.495968	-86.206489	124.263414	539.824927	-105.320628	227.078222	565.280754	-105.738312	32.495107	419.228141	-125.826476	70.568684	414.481693	-205.331841	-31.929376	429.335824	-177.727860	198.438492	234.403537	-141.382849	122.793970	254.725222	-97.800635	130.065080	1038.623294	-458.537542	213.774057	1015.886968	-456.815812	231.708259	1047.113791	-449.052969	276.480013	952.792487	-453.926346	394.956521	851.684934	-427.485284	421.303276	832.444201	-316.041840	379.255996	732.667045	-451.792502	374.472204	647.515410	-432.521117	329.597270	571.435822	-434.060122	400.903375	642.532179	-403.455155	278.762994	436.333210	-435.075374	273.947688	434.782548	-344.807510	200.245682	402.835134	-397.573179	500.843706	423.446966	-398.447376	436.017592	379.544031	-461.730826	-177.473626	937.310035	-278.142885	-3.394615	85.529616	-484.559444	-14.866764	80.056223	-84.185498	
